<svg width="28" height="29" viewBox="0 0 28 29" fill="none" xmlns="http://www.w3.org/2000/svg">
<path d="M25.2355 19.2243H8.95234L9.76991 17.5581L23.3543 17.5335C23.8137 17.5335 24.2074 17.2051 24.2894 16.751L26.1707 6.21485C26.2199 5.93852 26.1461 5.65398 25.9656 5.43784C25.8764 5.33146 25.7652 5.24578 25.6396 5.18672C25.514 5.12767 25.377 5.09666 25.2383 5.09584L7.95702 5.03839L7.80937 4.34346C7.7164 3.90023 7.31718 3.57739 6.86327 3.57739H2.63867C2.38267 3.57739 2.13716 3.67915 1.95614 3.86027C1.77513 4.04139 1.67343 4.28704 1.67343 4.54318C1.67343 4.79933 1.77513 5.04498 1.95614 5.2261C2.13716 5.40722 2.38267 5.50897 2.63867 5.50897H6.08124L6.72656 8.57871L8.31523 16.2749L6.26992 19.6155C6.1637 19.759 6.09972 19.9293 6.08523 20.1072C6.07073 20.2851 6.10629 20.4636 6.18788 20.6223C6.35195 20.9479 6.68281 21.1531 7.04921 21.1531H8.7664C8.40032 21.6396 8.20258 22.2322 8.20312 22.8412C8.20312 24.3897 9.46093 25.6483 11.0086 25.6483C12.5562 25.6483 13.8141 24.3897 13.8141 22.8412C13.8141 22.2311 13.6117 21.6374 13.2508 21.1531H17.6559C17.2898 21.6396 17.092 22.2322 17.0926 22.8412C17.0926 24.3897 18.3504 25.6483 19.898 25.6483C21.4457 25.6483 22.7035 24.3897 22.7035 22.8412C22.7035 22.2311 22.5012 21.6374 22.1402 21.1531H25.2383C25.7687 21.1531 26.2035 20.7208 26.2035 20.1873C26.2019 19.9315 26.0993 19.6866 25.9179 19.5062C25.7366 19.3258 25.4913 19.2244 25.2355 19.2243V19.2243ZM8.35898 6.94261L24.1035 6.99459L22.5613 15.6347L10.1937 15.6566L8.35898 6.94261ZM11.0086 23.7058C10.5328 23.7058 10.1445 23.3173 10.1445 22.8412C10.1445 22.3651 10.5328 21.9766 11.0086 21.9766C11.4844 21.9766 11.8726 22.3651 11.8726 22.8412C11.8726 23.0705 11.7816 23.2904 11.6196 23.4525C11.4575 23.6147 11.2378 23.7058 11.0086 23.7058V23.7058ZM19.898 23.7058C19.4223 23.7058 19.034 23.3173 19.034 22.8412C19.034 22.3651 19.4223 21.9766 19.898 21.9766C20.3738 21.9766 20.7621 22.3651 20.7621 22.8412C20.7621 23.0705 20.6711 23.2904 20.509 23.4525C20.347 23.6147 20.1272 23.7058 19.898 23.7058V23.7058Z" fill="black"/>
</svg>
