<svg width="28" height="29" viewBox="0 0 28 29" fill="none" xmlns="http://www.w3.org/2000/svg">
<path d="M23.3333 14.0288V8.19208H25.6666V15.1961H23.3333M23.3333 19.8655H25.6666V17.5308H23.3333M11.6666 15.1961C14.7816 15.1961 21 16.7603 21 19.8655V23.3675H2.33331V19.8655C2.33331 16.7603 8.55165 15.1961 11.6666 15.1961ZM11.6666 4.69006C12.9043 4.69006 14.0913 5.18201 14.9665 6.05768C15.8416 6.93336 16.3333 8.12103 16.3333 9.35941C16.3333 10.5978 15.8416 11.7855 14.9665 12.6611C14.0913 13.5368 12.9043 14.0288 11.6666 14.0288C10.429 14.0288 9.24198 13.5368 8.36681 12.6611C7.49165 11.7855 6.99998 10.5978 6.99998 9.35941C6.99998 8.12103 7.49165 6.93336 8.36681 6.05768C9.24198 5.18201 10.429 4.69006 11.6666 4.69006M11.6666 17.414C8.20165 17.414 4.54998 19.1184 4.54998 19.8655V21.1495H18.7833V19.8655C18.7833 19.1184 15.1316 17.414 11.6666 17.414M11.6666 6.90801C11.0169 6.90801 10.3937 7.16628 9.93424 7.62601C9.47477 8.08573 9.21665 8.70926 9.21665 9.35941C9.21665 10.0096 9.47477 10.6331 9.93424 11.0928C10.3937 11.5526 11.0169 11.8108 11.6666 11.8108C12.3164 11.8108 12.9396 11.5526 13.3991 11.0928C13.8585 10.6331 14.1166 10.0096 14.1166 9.35941C14.1166 8.70926 13.8585 8.08573 13.3991 7.62601C12.9396 7.16628 12.3164 6.90801 11.6666 6.90801V6.90801Z" fill="black"/>
</svg>
